# xmcd
#
# Track frame offsets: 
#        150
#        16810
#        40353
#        62360
#        86208
#        108985
#        134938
#        154223
#        173308
#        202648
#
# Disc length: 3001 seconds
#
# Revision: 0
# Processed by: cddbd v1.5.2PL0 Copyright (c) Steve Scherf et al.
# Submitted via: ExactAudioCopy v1.0b3
#
DISCID=790bb70a
DTITLE=Tuan Vu, Thien Trang - Dam Me
DYEAR=1990
DGENRE=
TTITLE0=Tuan Vu - Neu toi dua em ve
TTITLE1=Thien Trang - Sau le bong
TTITLE2=Tuan Vu - Nhung dem cho sang
TTITLE3=Thien Trang - Hue xua
TTITLE4=Dam me
TTITLE5=Tuan Vu - Hai mua mua
TTITLE6=Thien Trang - Tram nho ngan thuong
TTITLE7=Tuan Vu - Sai Gon thu bay
TTITLE8=Thien Trang - Mua dem ngoai o
TTITLE9=Tuan Vu - Gia tu dem mua
EXTD=
EXTT0=
EXTT1=
EXTT2=
EXTT3=
EXTT4=
EXTT5=
EXTT6=
EXTT7=
EXTT8=
EXTT9=
PLAYORDER=
